<?xml version="1.0" encoding="utf-8"?>
<!-- Generator: Adobe Illustrator 16.0.0, SVG Export Plug-In . SVG Version: 6.00 Build 0)  -->
<!DOCTYPE svg PUBLIC "-//W3C//DTD SVG 1.1//EN" "http://www.w3.org/Graphics/SVG/1.1/DTD/svg11.dtd">
<svg version="1.1" id="Capa_1" xmlns="http://www.w3.org/2000/svg" xmlns:xlink="http://www.w3.org/1999/xlink" x="0px" y="0px"
	 width="60px" height="54px" viewBox="0 0 60 54" enable-background="new 0 0 60 54" xml:space="preserve">
<path fill="#FFFFFF" d="M58.869,47.105l-25.79-44.67c-1.875-3.248-4.944-3.248-6.818,0L0.469,47.105
	c-1.875,3.248-0.341,5.904,3.409,5.904h51.581C59.209,53.01,60.744,50.354,58.869,47.105z M29.669,48.295
	c-2.205,0-3.992-1.789-3.992-3.992c0-2.205,1.787-3.992,3.992-3.992c2.205,0,3.991,1.787,3.991,3.992
	C33.66,46.506,31.874,48.295,29.669,48.295z M31.258,36.582c-0.228,0.869-0.862,1.283-1.588,1.283c-0.728,0-1.391-0.422-1.589-1.283
	c-1.539-6.127-3.866-15.06-3.866-17.309c0-3.012,2.442-5.455,5.455-5.455c3.011,0,5.454,2.442,5.454,5.455
	C35.123,21.522,32.796,30.455,31.258,36.582z"/>
</svg>
