<?xml version="1.0" encoding="utf-8"?>
<!-- Generator: Adobe Illustrator 16.0.0, SVG Export Plug-In . SVG Version: 6.00 Build 0)  -->
<!DOCTYPE svg PUBLIC "-//W3C//DTD SVG 1.1//EN" "http://www.w3.org/Graphics/SVG/1.1/DTD/svg11.dtd">
<svg version="1.1" id="Capa_1" xmlns="http://www.w3.org/2000/svg" xmlns:xlink="http://www.w3.org/1999/xlink" x="0px" y="0px"
	 width="50px" height="60px" viewBox="0 0 50 60" enable-background="new 0 0 50 60" xml:space="preserve">
<g>
	<g>
		<path fill="#FFFFFF" d="M33.211-1C24.209-1,16.75,5.608,15.422,14.238L51,14.239C49.671,5.608,42.213-1,33.211-1z"/>
		<path fill="#FFFFFF" d="M51,19.762H15.422c1.329,8.63,8.787,15.239,17.789,15.239S49.671,28.393,51,19.762z"/>
	</g>
	<g>
		<path fill="#FFFFFF" d="M13.855,23.782c-2.735,0.832-5.312,2.327-7.475,4.49c-6.365,6.365-6.966,16.312-1.803,23.354
			l17.466-17.466C18.305,31.716,15.376,28.085,13.855,23.782z"/>
		<path fill="#FFFFFF" d="M27.37,36.644L8.482,55.532c7.042,5.162,16.989,4.562,23.354-1.804c4.486-4.486,6.105-10.751,4.865-16.524
			c-1.139,0.2-2.305,0.308-3.49,0.308C31.194,37.512,29.232,37.206,27.37,36.644z"/>
	</g>
</g>
</svg>
