<?xml version="1.0" encoding="utf-8"?>
<!-- Generator: Adobe Illustrator 16.0.0, SVG Export Plug-In . SVG Version: 6.00 Build 0)  -->
<!DOCTYPE svg PUBLIC "-//W3C//DTD SVG 1.1//EN" "http://www.w3.org/Graphics/SVG/1.1/DTD/svg11.dtd">
<svg version="1.1" id="Capa_1" xmlns="http://www.w3.org/2000/svg" xmlns:xlink="http://www.w3.org/1999/xlink" x="0px" y="0px"
	 width="42px" height="60px" viewBox="0 0 42 60" enable-background="new 0 0 42 60" xml:space="preserve">
<g>
	<path fill="#FFFFFF" d="M34.522,10.04H7.478c-4.123,0-7.465,3.342-7.465,7.464v35.267c0,4.123,3.342,7.465,7.465,7.465h27.045
		c4.123,0,7.465-3.342,7.465-7.465V17.504C41.987,13.381,38.646,10.04,34.522,10.04z M32.901,38.527h-7.364v7.364h-8.534v-7.364
		H9.64v-8.534h7.364V22.63h8.534v7.364h7.364V38.527z"/>
	<path fill="#FFFFFF" d="M36.807,6.024c0,1.564-1.269,2.833-2.833,2.833H8.026c-1.564,0-2.833-1.268-2.833-2.833V3.068
		c0-1.564,1.268-2.833,2.833-2.833h25.947c1.564,0,2.833,1.269,2.833,2.833V6.024z"/>
</g>
</svg>
