<?xml version="1.0" encoding="utf-8"?>
<!-- Generator: Adobe Illustrator 13.0.0, SVG Export Plug-In . SVG Version: 6.00 Build 14948)  -->
<!DOCTYPE svg PUBLIC "-//W3C//DTD SVG 1.1//EN" "http://www.w3.org/Graphics/SVG/1.1/DTD/svg11.dtd">
<svg version="1.1" id="Layer_1" xmlns="http://www.w3.org/2000/svg" xmlns:xlink="http://www.w3.org/1999/xlink" x="0px" y="0px"
	 width="42.443px" height="60px" viewBox="0 0 42.443 60" enable-background="new 0 0 42.443 60" xml:space="preserve">
<g>
	<defs>
		<rect id="SVGID_1_" width="42.443" height="60"/>
	</defs>
	<clipPath id="SVGID_2_">
		<use xlink:href="#SVGID_1_"  overflow="visible"/>
	</clipPath>
	<path clip-path="url(#SVGID_2_)" fill="#575757" d="M38.45,24.63h-1.92v-9.321C36.53,6.867,29.663,0,21.221,0
		C12.781,0,5.913,6.867,5.913,15.309v9.321H3.994C1.788,24.63,0,26.418,0,28.624v27.381C0,58.211,1.788,60,3.994,60H38.45
		c2.204,0,3.993-1.789,3.993-3.995V28.624C42.443,26.418,40.654,24.63,38.45,24.63 M25.711,52.612h-8.981l2.171-8.749
		c-1.963-0.887-3.336-2.854-3.336-5.149c0-3.124,2.533-5.657,5.657-5.657c3.125,0,5.659,2.533,5.659,5.657
		c0,2.296-1.375,4.263-3.338,5.149L25.711,52.612z M29.874,24.63H12.569v-9.321c0-4.771,3.881-8.652,8.652-8.652
		c4.771,0,8.653,3.881,8.653,8.652V24.63z"/>
</g>
</svg>
