<?xml version="1.0" encoding="utf-8"?>
<!-- Generator: Adobe Illustrator 16.0.0, SVG Export Plug-In . SVG Version: 6.00 Build 0)  -->
<!DOCTYPE svg PUBLIC "-//W3C//DTD SVG 1.1//EN" "http://www.w3.org/Graphics/SVG/1.1/DTD/svg11.dtd">
<svg version="1.1" id="Capa_1" xmlns="http://www.w3.org/2000/svg" xmlns:xlink="http://www.w3.org/1999/xlink" x="0px" y="0px"
	 width="60px" height="60px" viewBox="0 0 60 60" enable-background="new 0 0 60 60" xml:space="preserve">
<path fill-rule="evenodd" clip-rule="evenodd" fill="#FFFFFF" d="M59.521-0.057c-0.322-0.335-0.786-0.369-1.175-0.06
	c-0.2,0.158-0.372,0.351-0.553,0.531c-4.912,4.912-9.825,9.824-14.737,14.737c-0.145,0.144-0.278,0.304-0.439,0.427
	c-0.114,0.087-0.266,0.172-0.402,0.175c-0.54,0.011-0.98,0.249-1.402,0.548c-0.959,0.679-1.914,1.363-2.884,2.027
	c-0.313,0.214-0.656,0.392-1.003,0.547c-0.15,0.067-0.374,0.103-0.514,0.039c-0.653-0.295-1.308-0.172-1.959-0.056
	c-0.979,0.173-1.958,0.361-2.931,0.574c-0.395,0.086-0.783,0.229-1.155,0.388c-0.619,0.266-1.115,0.707-1.588,1.181
	c-5.991,6.001-11.987,11.997-17.981,17.995c-0.162,0.163-0.321,0.329-0.489,0.485c-0.657,0.611-1.158,0.65-1.912,0.156
	c-0.576-0.376-1.098-0.377-1.612,0.066c-0.405,0.349-0.789,0.73-1.135,1.138c-0.464,0.546-0.429,1.189,0.044,1.74
	c0.116,0.136,0.249,0.257,0.375,0.383c0.668,0.669,1.321,1.354,2.008,2c0.794,0.748,0.727,1.64,0.019,2.262
	c-0.038,0.033-0.072,0.072-0.107,0.108c-0.939,0.939-1.893,1.864-2.813,2.821c-0.807,0.839-1.755,1.082-2.864,0.812
	c-0.322-0.079-0.642-0.177-0.969-0.226c-0.499-0.075-1.006-0.173-1.49,0.049c-0.05,0.425-0.07,0.438,0.043,0.596
	c0.209,0.288,0.42,0.58,0.67,0.83c2.215,2.228,4.439,4.447,6.662,6.667c0.145,0.145,0.286,0.297,0.451,0.414
	c0.185,0.132,0.388,0.244,0.596,0.336c0.216,0.096,0.434-0.01,0.457-0.25c0.034-0.352,0.042-0.713-0.001-1.062
	c-0.049-0.403-0.146-0.804-0.256-1.197c-0.314-1.121-0.019-2.054,0.804-2.857c0.949-0.93,1.88-1.876,2.821-2.814
	c0.126-0.127,0.249-0.258,0.389-0.367c0.484-0.378,1.142-0.391,1.637-0.028c0.164,0.119,0.305,0.27,0.449,0.414
	c0.725,0.72,1.468,1.424,2.163,2.172c0.497,0.534,1.455,0.635,2.043-0.008c0.258-0.282,0.549-0.536,0.809-0.815
	c0.583-0.629,0.621-1.143,0.152-1.854c-0.418-0.635-0.385-1.161,0.121-1.74c0.167-0.192,0.356-0.366,0.536-0.547
	c6.05-6.051,12.098-12.104,18.154-18.147c0.768-0.765,1.275-1.652,1.485-2.709c0.208-1.052,0.412-2.104,0.598-3.16
	c0.088-0.503,0.139-1.015-0.072-1.509c-0.12-0.28-0.075-0.559,0.055-0.814c0.149-0.294,0.317-0.583,0.506-0.855
	c0.668-0.966,1.347-1.924,2.024-2.884c0.254-0.358,0.503-0.729,0.494-1.181c-0.008-0.351,0.157-0.576,0.389-0.789
	c0.113-0.103,0.218-0.215,0.326-0.324c4.877-4.876,9.753-9.753,14.629-14.629c0.181-0.181,0.371-0.354,0.534-0.549
	C59.827,0.762,59.82,0.256,59.521-0.057z M35.949,28.8c-0.141,0.148-0.287,0.29-0.432,0.435
	c-5.778,5.779-11.557,11.557-17.336,17.335c-0.18,0.18-0.354,0.371-0.551,0.532c-0.547,0.448-1.202,0.442-1.752-0.003
	c-0.059-0.049-0.112-0.104-0.167-0.158c-1.067-1.064-2.133-2.13-3.2-3.191c-0.24-0.24-0.435-0.505-0.485-0.849
	c-0.058-0.397,0.021-0.766,0.288-1.074c0.15-0.174,0.314-0.336,0.477-0.499c5.85-5.851,11.708-11.695,17.545-17.559
	c1.009-1.014,2.204-1.542,3.596-1.67c0.742-0.068,1.421,0.089,1.945,0.683c0.236,0.268,0.492,0.521,0.759,0.757
	c0.517,0.458,0.719,1.037,0.714,1.868C37.265,26.581,36.892,27.803,35.949,28.8z"/>
<path fill-rule="evenodd" clip-rule="evenodd" fill="#FFFFFF" d="M33.636,24.004c0.878-0.179,2.003,1.041,1.82,1.923
	c-0.089,0.429-0.19,0.843-0.4,1.23c-0.245,0.452-0.542,0.862-0.907,1.226c-1.86,1.857-3.717,3.719-5.581,5.574
	c-0.179,0.179-0.376,0.354-0.596,0.472c-0.468,0.251-0.942,0.241-1.344-0.144c-0.499-0.477-0.992-0.958-1.462-1.461
	c-0.385-0.414-0.422-0.914-0.134-1.413c0.101-0.175,0.237-0.334,0.38-0.477c1.91-1.916,3.824-3.829,5.739-5.74
	c0.401-0.401,0.875-0.702,1.387-0.943C32.889,24.085,33.256,23.992,33.636,24.004z"/>
</svg>
