<?xml version="1.0" encoding="utf-8"?>
<!-- Generator: Adobe Illustrator 16.0.0, SVG Export Plug-In . SVG Version: 6.00 Build 0)  -->
<!DOCTYPE svg PUBLIC "-//W3C//DTD SVG 1.1//EN" "http://www.w3.org/Graphics/SVG/1.1/DTD/svg11.dtd">
<svg version="1.1" id="Capa_1" xmlns="http://www.w3.org/2000/svg" xmlns:xlink="http://www.w3.org/1999/xlink" x="0px" y="0px"
	 width="60px" height="60px" viewBox="0 0 60 60" enable-background="new 0 0 60 60" xml:space="preserve">
<g>
	<g>
		<g>
			<g>
				<path fill="#FFFFFF" d="M45.54,32.138c-0.367,0-0.741-0.011-1.108-0.032l-9.373-0.543l-9.13,9.131L15.675,30.44l-1.19-0.069
					c-1.142-0.066-2.253-0.236-3.325-0.492c0.569,0.844,1.227,1.648,1.976,2.396l21.21,21.211
					c5.846,5.846,15.024,6.232,20.396,0.861c5.372-5.373,4.985-14.553-0.859-20.398l-2.682-2.682
					C49.422,31.83,47.519,32.138,45.54,32.138C45.54,32.138,45.541,32.138,45.54,32.138z"/>
			</g>
			<g>
				<path fill="#FFFFFF" d="M46.189,1.763L16.243,0.027C7.99-0.451,0.877,5.364,0.438,12.949
					c-0.439,7.585,5.954,14.183,14.207,14.662l29.946,1.735c8.254,0.478,15.365-5.336,15.805-12.922
					C60.836,8.838,54.443,2.241,46.189,1.763z M57.307,16.245c-0.161,2.794-1.526,5.375-3.842,7.268
					c-2.392,1.956-5.48,2.93-8.694,2.744l-14.974-0.868l1.242-21.404l14.973,0.868c3.215,0.187,6.17,1.511,8.319,3.73
					C56.411,10.729,57.469,13.451,57.307,16.245z"/>
			</g>
		</g>
	</g>
</g>
</svg>
