<?xml version="1.0" encoding="utf-8"?>
<!-- Generator: Adobe Illustrator 16.0.0, SVG Export Plug-In . SVG Version: 6.00 Build 0)  -->
<!DOCTYPE svg PUBLIC "-//W3C//DTD SVG 1.1//EN" "http://www.w3.org/Graphics/SVG/1.1/DTD/svg11.dtd">
<svg version="1.1" id="Capa_1" xmlns="http://www.w3.org/2000/svg" xmlns:xlink="http://www.w3.org/1999/xlink" x="0px" y="0px"
	 width="60px" height="60px" viewBox="60 60 60 60" enable-background="new 60 60 60 60" xml:space="preserve">
<path fill="#FFFFFF" d="M119.455,80.981c-0.947-3.178-3.218-5.809-6.57-7.602c-0.463-0.248-0.952-0.477-1.454-0.691
	c-0.959-0.412-1.987-0.757-3.067-1.045c-0.289-1.082-0.638-2.107-1.05-3.066c-0.214-0.495-0.438-0.976-0.684-1.435
	c-1.799-3.36-4.438-5.635-7.59-6.567c-2.333-0.738-4.783-0.722-7.281,0.047c-2.29,0.707-4.53,2.033-6.648,3.861
	c-0.782,0.675-1.546,1.422-2.29,2.233c-1.073-0.25-2.125-0.439-3.15-0.556c-2.782-0.321-5.379-0.158-7.669,0.547
	c-2.499,0.77-4.532,2.132-6.022,4.027c-2.106,2.573-3.006,5.938-2.604,9.729c0.054,0.516,0.139,1.042,0.24,1.57
	c0.199,1.025,0.489,2.07,0.857,3.127c0.459,1.312,1.042,2.645,1.748,3.983c0.47,0.888,1,1.781,1.574,2.67
	c0.205,0.318,0.417,0.636,0.636,0.954c0.729,1.064,1.529,2.122,2.396,3.171c-0.126,1.355-0.194,2.683-0.198,3.971
	c-0.002,0.386,0.001,0.767,0.012,1.145c0.027,1.058,0.09,2.094,0.202,3.095c-0.671-0.254-1.315-0.532-1.911-0.851
	c-0.345-0.187-0.667-0.381-0.977-0.582c-1.905-1.247-3.16-2.836-3.733-4.764c-0.6-1.884-0.456-3.899,0.417-5.999
	c-0.826-1.401-1.525-2.807-2.113-4.204c-0.294,0.459-0.57,0.923-0.814,1.39c-1.761,3.366-2.16,6.817-1.165,9.945
	c0.947,3.18,3.219,5.807,6.57,7.602c0.465,0.248,0.952,0.477,1.455,0.692c0.959,0.41,1.985,0.757,3.067,1.044
	c0.29,1.08,0.637,2.107,1.049,3.066c0.215,0.494,0.439,0.977,0.684,1.435c1.799,3.36,4.438,5.637,7.591,6.568
	c2.331,0.738,4.78,0.722,7.277-0.049c2.292-0.706,4.533-2.032,6.65-3.861c0.782-0.674,1.546-1.422,2.29-2.232
	c0.941-1.022,1.853-2.146,2.721-3.369c0.533-0.746,1.052-1.521,1.553-2.338c0.048-0.076,0.092-0.159,0.14-0.239
	c0.718-1.189,1.403-2.449,2.051-3.772c1.403-0.689,2.742-1.426,4.002-2.205c0.814-0.502,1.596-1.019,2.34-1.555
	c0.863-0.615,1.684-1.247,2.447-1.9c0.165,0.691,0.296,1.373,0.366,2.04c0.044,0.41,0.03,0.788,0.034,1.179
	c0.029,2.256-0.547,4.189-1.811,5.738c-1.021,1.295-2.419,2.223-4.154,2.757v0.002c-1.161,0.356-2.443,0.529-3.812,0.539
	c-0.868,1.315-1.776,2.546-2.724,3.683c2.778,0.319,5.377,0.157,7.665-0.549c0.003,0.001,0.003,0.001,0.003,0
	c2.498-0.77,4.532-2.132,6.021-4.025c2.104-2.574,3.004-5.939,2.602-9.73c-0.055-0.518-0.139-1.041-0.241-1.568
	c-0.197-1.027-0.488-2.071-0.856-3.128c-0.459-1.313-1.038-2.645-1.746-3.982c-0.471-0.889-1-1.781-1.574-2.671
	c-0.205-0.319-0.414-0.636-0.635-0.955c-0.729-1.066-1.53-2.123-2.396-3.17c0.126-1.355,0.191-2.681,0.197-3.97
	c0.001-0.388-0.003-0.769-0.011-1.147c-0.027-1.059-0.091-2.092-0.203-3.092c0.67,0.253,1.315,0.531,1.914,0.85
	c0.343,0.186,0.664,0.378,0.975,0.582c1.904,1.246,3.16,2.835,3.732,4.763c0.602,1.886,0.458,3.901-0.419,6
	c0.827,1.404,1.528,2.809,2.115,4.205c0.293-0.461,0.569-0.923,0.812-1.391C120.053,87.56,120.45,84.109,119.455,80.981z
	 M109.716,91.493c0.261,0.447,0.506,0.891,0.739,1.335c0.212,0.411,0.414,0.821,0.602,1.229c-0.395,0.378-0.808,0.753-1.242,1.118
	c-0.306,0.259-0.626,0.515-0.95,0.768c-0.883,0.687-1.828,1.353-2.839,1.991c-1.616,1.021-3.391,1.97-5.296,2.835
	c-1.235,0.562-2.526,1.088-3.864,1.573c-0.858,0.309-1.729,0.608-2.629,0.885l-0.166,0.051l-0.152,0.049
	c-0.895,0.274-1.784,0.517-2.668,0.742c-1.38,0.354-2.744,0.645-4.082,0.876c-2.062,0.357-4.062,0.57-5.973,0.635
	c-1.195,0.041-2.352,0.022-3.466-0.048c0.073,0.365,0.153,0.724,0.244,1.071c0.271,1.025,0.621,1.961,1.037,2.81
	c0.92,0.021,1.857,0.011,2.813-0.031c1.479-0.065,2.998-0.21,4.548-0.431c1.998-0.283,4.044-0.691,6.114-1.231
	c0.356-0.091,0.714-0.187,1.07-0.288c0.497-0.139,0.993-0.276,1.493-0.43l0.321-0.099c0.501-0.154,0.991-0.319,1.481-0.484
	c0.349-0.119,0.698-0.24,1.044-0.362c-0.12,0.188-0.237,0.381-0.359,0.565c-0.55,0.838-1.117,1.623-1.695,2.369
	c-0.229,0.29-0.455,0.583-0.687,0.857c-0.688,0.819-1.396,1.572-2.118,2.248c-0.807,0.758-1.631,1.415-2.466,1.974
	c-1.141,0.764-2.299,1.342-3.461,1.7c-1.736,0.536-3.413,0.557-5.021,0.046c-1.887-0.557-3.447-1.832-4.689-3.714
	c-0.215-0.323-0.441-0.628-0.636-0.991c-0.317-0.593-0.593-1.229-0.845-1.895c-0.464-1.227-0.82-2.568-1.064-4.012
	c-0.073-0.443-0.137-0.892-0.192-1.351c-0.058-0.499-0.104-1.006-0.138-1.522c-0.052-0.798-0.081-1.612-0.076-2.451
	c0.909,0.895,1.864,1.773,2.867,2.631c0.091,0.078,0.188,0.153,0.279,0.231c1.892,0.141,3.938,0.1,6.084-0.117
	c-0.788-0.568-1.575-1.159-2.353-1.787c-1.423-1.134-2.75-2.308-3.989-3.506c-0.89-0.86-1.731-1.736-2.52-2.619
	c0.154-1.173,0.357-2.369,0.609-3.583c0.35-1.691,0.788-3.414,1.327-5.157c0.289-0.954,0.607-1.881,0.937-2.793
	c0.488-1.344,1.015-2.639,1.581-3.88c0.865-1.902,1.817-3.671,2.836-5.286c0.12-0.19,0.238-0.382,0.358-0.565
	c-1.422-0.41-2.782-0.675-4.057-0.785c-0.721,1.19-1.405,2.45-2.05,3.774c-0.873,1.791-1.67,3.695-2.383,5.698
	c-0.315,0.888-0.619,1.79-0.899,2.713c-0.171,0.554-0.327,1.106-0.481,1.659c-0.033,0.116-0.071,0.235-0.102,0.352
	c-0.345,1.273-0.639,2.536-0.89,3.787c-0.476-0.691-0.912-1.381-1.318-2.07c-0.262-0.445-0.508-0.891-0.739-1.333
	c-0.214-0.411-0.415-0.82-0.603-1.229c-0.611-1.329-1.071-2.64-1.376-3.915c-0.166-0.69-0.296-1.372-0.368-2.04
	c-0.045-0.41-0.028-0.789-0.033-1.179c-0.03-2.257,0.546-4.192,1.81-5.739c1.021-1.295,2.418-2.223,4.156-2.758
	c1.16-0.358,2.443-0.533,3.812-0.542c1.007-0.007,2.06,0.075,3.153,0.245c0.977,0.153,1.986,0.378,3.016,0.669
	c0.346,0.097,0.697,0.209,1.048,0.324c0.899,0.287,1.812,0.618,2.737,1.001c0.204,0.086,0.408,0.177,0.615,0.268
	c1.75,0.762,3.532,1.689,5.317,2.773c1.166,0.708,2.331,1.482,3.491,2.321c0.788,0.571,1.575,1.159,2.353,1.787
	c1.423,1.134,2.752,2.309,3.989,3.508c0.138-1.82,0.148-3.56,0.021-5.179c-0.092-0.078-0.188-0.154-0.28-0.232
	c-0.436-0.37-0.872-0.735-1.323-1.096c-0.756-0.609-1.515-1.185-2.278-1.743c-1.717-1.257-3.448-2.382-5.176-3.372
	c-1.279-0.73-2.552-1.386-3.818-1.965c-0.081-0.04-0.164-0.082-0.249-0.12c-0.871-0.392-1.737-0.742-2.597-1.06
	c0.806-0.756,1.633-1.415,2.468-1.975c1.141-0.763,2.299-1.341,3.458-1.699c1.737-0.536,3.416-0.556,5.023-0.046
	c1.886,0.557,3.445,1.831,4.689,3.714c0.215,0.326,0.441,0.628,0.636,0.993c0.315,0.592,0.59,1.227,0.844,1.891
	c0.463,1.228,0.818,2.57,1.062,4.012c0.075,0.444,0.139,0.893,0.193,1.353c0.059,0.5,0.104,1.006,0.138,1.521
	c0.053,0.797,0.081,1.613,0.076,2.452c-0.011,1.655-0.134,3.386-0.368,5.169c-0.155,1.173-0.356,2.37-0.608,3.583
	c-0.352,1.689-0.789,3.41-1.329,5.152c-0.288,0.956-0.604,1.883-0.937,2.794c1.897-1.027,3.612-2.146,5.094-3.324
	c0.033-0.119,0.071-0.234,0.103-0.352c0.348-1.273,0.642-2.537,0.892-3.79C108.875,90.116,109.31,90.806,109.716,91.493z
	 M91.243,81.836c-4.361,0-7.895,3.534-7.895,7.894c0,4.358,3.535,7.893,7.895,7.893c4.359,0,7.895-3.534,7.895-7.893
	C99.138,85.369,95.603,81.836,91.243,81.836z M90.138,91.505c-1.872,0-3.388-1.514-3.388-3.388c0-1.872,1.517-3.388,3.388-3.388
	c1.872,0,3.388,1.516,3.388,3.388C93.525,89.991,92.009,91.505,90.138,91.505z"/>
</svg>
