<?xml version="1.0" encoding="utf-8"?>
<!-- Generator: Adobe Illustrator 16.0.0, SVG Export Plug-In . SVG Version: 6.00 Build 0)  -->
<!DOCTYPE svg PUBLIC "-//W3C//DTD SVG 1.1//EN" "http://www.w3.org/Graphics/SVG/1.1/DTD/svg11.dtd">
<svg version="1.1" id="Capa_1" xmlns="http://www.w3.org/2000/svg" xmlns:xlink="http://www.w3.org/1999/xlink" x="0px" y="0px"
	 width="60px" height="60px" viewBox="0 0 60 60" enable-background="new 0 0 60 60" xml:space="preserve">
<path fill-rule="evenodd" clip-rule="evenodd" fill="#FFFFFF" d="M37.521,10.864c7.519,3.168,4.694,4.921,10.634-0.019l2.559-2.128
	l-2.128,2.559c-4.94,5.939-3.188,3.116-0.021,10.634c3.233,7.672-0.203,6.997,7.621,7.716L59.5,29.93l-3.314,0.305
	c-7.823,0.718-4.387,0.044-7.62,7.716c-3.168,7.518-4.921,4.694,0.02,10.634l2.128,2.559l-2.559-2.128
	c-5.939-4.94-3.115-3.188-10.634-0.02c-7.672,3.233-6.998-0.203-7.716,7.62L29.5,59.931l-0.305-3.314
	c-0.718-7.823-0.044-4.387-7.716-7.62c-7.519-3.168-4.694-4.921-10.634,0.02l-2.559,2.128l2.128-2.559
	c4.94-5.939,3.189-3.116,0.021-10.634c-3.233-7.672,0.202-6.998-7.622-7.716L-0.5,29.93l3.314-0.304
	c7.823-0.719,4.387-0.044,7.62-7.716c3.168-7.518,4.921-4.694-0.02-10.634L8.287,8.717l2.559,2.128
	c5.939,4.94,3.116,3.188,10.634,0.019c7.672-3.232,6.998,0.204,7.716-7.62L29.5-0.069l0.305,3.313
	C30.522,11.068,29.849,7.632,37.521,10.864L37.521,10.864z M17.125,20.691c-0.293,0-0.558,0.119-0.75,0.311
	c-0.192,0.192-0.311,0.457-0.311,0.75c0,0.293,0.119,0.558,0.311,0.75c0.191,0.192,0.457,0.311,0.75,0.311s0.558-0.119,0.75-0.311
	s0.311-0.457,0.311-0.75c0-0.292-0.119-0.558-0.311-0.75C17.683,20.81,17.418,20.691,17.125,20.691L17.125,20.691z M44.168,24.403
	c-0.292,0-0.558,0.119-0.749,0.311c-0.192,0.192-0.312,0.458-0.312,0.75s0.119,0.558,0.312,0.75
	c0.191,0.192,0.457,0.311,0.749,0.311c0.293,0,0.559-0.119,0.75-0.311c0.192-0.192,0.311-0.458,0.311-0.75s-0.118-0.558-0.311-0.75
	C44.727,24.521,44.461,24.403,44.168,24.403L44.168,24.403z M38.865,29.706c-0.292,0-0.558,0.119-0.749,0.311
	c-0.192,0.192-0.311,0.457-0.311,0.75c0,0.292,0.118,0.558,0.311,0.75c0.191,0.192,0.457,0.311,0.749,0.311
	c0.293,0,0.559-0.118,0.75-0.311c0.192-0.191,0.311-0.457,0.311-0.75c0-0.293-0.118-0.558-0.311-0.75
	C39.424,29.824,39.158,29.706,38.865,29.706L38.865,29.706z M42.047,36.068c-0.293,0-0.558,0.119-0.749,0.311
	c-0.192,0.192-0.311,0.457-0.311,0.75s0.118,0.558,0.311,0.75c0.191,0.192,0.456,0.311,0.749,0.311s0.559-0.118,0.75-0.311
	c0.192-0.192,0.311-0.457,0.311-0.75s-0.118-0.558-0.311-0.75C42.605,36.188,42.34,36.068,42.047,36.068L42.047,36.068z
	 M34.624,36.068c-0.293,0-0.559,0.119-0.75,0.311c-0.192,0.192-0.311,0.457-0.311,0.75s0.118,0.558,0.311,0.75
	c0.191,0.192,0.457,0.311,0.75,0.311s0.558-0.118,0.75-0.311c0.191-0.192,0.31-0.457,0.31-0.75s-0.118-0.558-0.31-0.75
	C35.182,36.188,34.917,36.068,34.624,36.068L34.624,36.068z M28.261,38.72c-0.293,0-0.558,0.119-0.75,0.311
	c-0.192,0.192-0.311,0.458-0.311,0.75c0,0.293,0.119,0.558,0.311,0.75s0.457,0.311,0.75,0.311c0.292,0,0.558-0.118,0.75-0.311
	c0.192-0.192,0.311-0.457,0.311-0.75c0-0.292-0.119-0.558-0.311-0.75C28.818,38.839,28.553,38.72,28.261,38.72L28.261,38.72z
	 M32.503,42.432c-0.293,0-0.559,0.119-0.75,0.311c-0.192,0.192-0.312,0.457-0.312,0.75s0.119,0.558,0.312,0.75
	c0.191,0.191,0.457,0.311,0.75,0.311c0.292,0,0.558-0.119,0.749-0.311c0.192-0.192,0.312-0.457,0.312-0.75s-0.119-0.558-0.312-0.75
	C33.061,42.551,32.795,42.432,32.503,42.432L32.503,42.432z M25.079,42.432c-0.293,0-0.558,0.119-0.75,0.311
	c-0.192,0.192-0.311,0.457-0.311,0.75s0.119,0.558,0.311,0.75c0.192,0.191,0.457,0.311,0.75,0.311c0.292,0,0.558-0.119,0.75-0.311
	c0.192-0.192,0.311-0.457,0.311-0.75s-0.119-0.558-0.311-0.75C25.637,42.551,25.372,42.432,25.079,42.432L25.079,42.432z
	 M15.004,33.417c-0.293,0-0.558,0.119-0.75,0.311c-0.192,0.192-0.311,0.457-0.311,0.75s0.119,0.559,0.311,0.75
	c0.192,0.192,0.457,0.311,0.75,0.311s0.558-0.118,0.75-0.311c0.192-0.191,0.311-0.457,0.311-0.75s-0.119-0.558-0.311-0.75
	C15.562,33.536,15.297,33.417,15.004,33.417L15.004,33.417z M19.246,39.25c-0.293,0-0.558,0.119-0.75,0.311
	c-0.192,0.192-0.311,0.457-0.311,0.75s0.119,0.558,0.311,0.75c0.192,0.191,0.457,0.311,0.75,0.311s0.558-0.119,0.75-0.311
	c0.192-0.192,0.311-0.457,0.311-0.75s-0.119-0.558-0.311-0.75C19.804,39.369,19.539,39.25,19.246,39.25L19.246,39.25z
	 M21.367,32.887c-0.293,0-0.558,0.119-0.75,0.311c-0.192,0.192-0.311,0.458-0.311,0.75c0,0.293,0.119,0.559,0.311,0.75
	s0.457,0.311,0.75,0.311c0.292,0,0.558-0.119,0.75-0.311c0.192-0.191,0.311-0.457,0.311-0.75c0-0.292-0.119-0.558-0.311-0.75
	C21.925,33.006,21.66,32.887,21.367,32.887L21.367,32.887z M27.73,31.826c-0.293,0-0.558,0.119-0.75,0.311
	c-0.192,0.192-0.311,0.457-0.311,0.75s0.119,0.559,0.311,0.75c0.192,0.192,0.457,0.311,0.75,0.311c0.292,0,0.558-0.118,0.75-0.311
	c0.192-0.191,0.311-0.457,0.311-0.75s-0.119-0.558-0.311-0.75C28.288,31.945,28.023,31.826,27.73,31.826L27.73,31.826z
	 M33.033,27.584c-0.293,0-0.559,0.119-0.75,0.311c-0.192,0.192-0.311,0.457-0.311,0.75c0,0.292,0.118,0.558,0.311,0.75
	c0.191,0.192,0.457,0.311,0.75,0.311c0.292,0,0.558-0.119,0.749-0.311c0.192-0.192,0.312-0.458,0.312-0.75
	c0-0.293-0.119-0.558-0.312-0.75C33.591,27.703,33.325,27.584,33.033,27.584L33.033,27.584z M36.215,23.342
	c-0.293,0-0.559,0.119-0.75,0.311c-0.192,0.192-0.311,0.457-0.311,0.75s0.118,0.558,0.311,0.75c0.191,0.192,0.457,0.311,0.75,0.311
	c0.292,0,0.558-0.119,0.749-0.311c0.192-0.192,0.312-0.457,0.312-0.75s-0.119-0.558-0.312-0.75
	C36.772,23.461,36.507,23.342,36.215,23.342L36.215,23.342z M38.336,18.04c-0.293,0-0.559,0.119-0.751,0.311
	c-0.191,0.192-0.31,0.458-0.31,0.75c0,0.293,0.118,0.558,0.31,0.75c0.192,0.192,0.458,0.311,0.751,0.311s0.558-0.119,0.75-0.311
	c0.191-0.192,0.31-0.457,0.31-0.75c0-0.292-0.118-0.558-0.31-0.75C38.894,18.159,38.629,18.04,38.336,18.04L38.336,18.04z
	 M30.912,17.51c-0.292,0-0.558,0.118-0.75,0.311c-0.192,0.192-0.311,0.457-0.311,0.75c0,0.293,0.119,0.558,0.311,0.75
	c0.192,0.192,0.457,0.311,0.75,0.311c0.293,0,0.558-0.119,0.75-0.311c0.191-0.192,0.311-0.457,0.311-0.75
	c0-0.292-0.119-0.558-0.311-0.75C31.47,17.628,31.205,17.51,30.912,17.51L30.912,17.51z M29.321,23.342
	c-0.293,0-0.558,0.119-0.75,0.311s-0.311,0.457-0.311,0.75s0.119,0.558,0.311,0.75s0.457,0.311,0.75,0.311
	c0.292,0,0.558-0.119,0.75-0.311s0.311-0.457,0.311-0.75s-0.119-0.558-0.311-0.75S29.614,23.342,29.321,23.342L29.321,23.342z
	 M24.549,16.449c-0.293,0-0.558,0.119-0.75,0.311s-0.311,0.457-0.311,0.75c0,0.292,0.119,0.558,0.311,0.75s0.457,0.311,0.75,0.311
	s0.558-0.119,0.75-0.311c0.191-0.192,0.311-0.457,0.311-0.75c0-0.293-0.119-0.558-0.311-0.75
	C25.106,16.568,24.842,16.449,24.549,16.449L24.549,16.449z M23.488,21.751c-0.293,0-0.558,0.119-0.75,0.311
	c-0.192,0.191-0.311,0.457-0.311,0.75c0,0.293,0.119,0.558,0.311,0.75s0.457,0.311,0.75,0.311c0.292,0,0.558-0.119,0.75-0.311
	s0.311-0.457,0.311-0.75c0-0.292-0.119-0.558-0.311-0.75C24.046,21.87,23.781,21.751,23.488,21.751L23.488,21.751z M23.488,26.524
	c-0.293,0-0.558,0.119-0.75,0.311s-0.311,0.457-0.311,0.75s0.119,0.558,0.311,0.75c0.192,0.192,0.457,0.311,0.75,0.311
	c0.292,0,0.558-0.119,0.75-0.311c0.192-0.191,0.311-0.457,0.311-0.75s-0.119-0.558-0.311-0.75S23.781,26.524,23.488,26.524
	L23.488,26.524z M17.125,26.524c-0.293,0-0.558,0.119-0.75,0.311c-0.192,0.192-0.311,0.457-0.311,0.75s0.119,0.558,0.311,0.75
	c0.191,0.192,0.457,0.311,0.75,0.311s0.558-0.119,0.75-0.311c0.192-0.191,0.311-0.457,0.311-0.75s-0.119-0.558-0.311-0.75
	S17.418,26.524,17.125,26.524L17.125,26.524z M29.5,13.456c-4.548,0-8.667,1.845-11.648,4.826c-2.981,2.982-4.826,7.1-4.826,11.648
	s1.845,8.667,4.826,11.649s7.1,4.825,11.648,4.825c4.548,0,8.667-1.844,11.648-4.825s4.825-7.101,4.825-11.649
	s-1.844-8.667-4.825-11.648C38.167,15.301,34.048,13.456,29.5,13.456z"/>
</svg>
