<?xml version="1.0" encoding="utf-8"?>
<!-- Generator: Adobe Illustrator 16.0.0, SVG Export Plug-In . SVG Version: 6.00 Build 0)  -->
<!DOCTYPE svg PUBLIC "-//W3C//DTD SVG 1.1//EN" "http://www.w3.org/Graphics/SVG/1.1/DTD/svg11.dtd">
<svg version="1.1" id="Capa_1" xmlns="http://www.w3.org/2000/svg" xmlns:xlink="http://www.w3.org/1999/xlink" x="0px" y="0px"
	 width="60px" height="60px" viewBox="0 0 60 60" enable-background="new 0 0 60 60" xml:space="preserve">
<path fill="#00a8c5" stroke="#00a8c5" d="M30,0C13.458,0,0,13.458,0,30s13.458,30,30,30s30-13.458,30-30S46.542,0,30,0z M30,58
	C14.561,58,2,45.439,2,30S14.561,2,30,2s28,12.561,28,28S45.439,58,30,58z"/>
<path fill="#00a8c5" stroke="#00a8c5" d="M49,29H12.414l14.293-14.293c0.391-0.391,0.391-1.023,0-1.414s-1.023-0.391-1.414,0l-16,16
	c-0.391,0.391-0.391,1.023,0,1.414l16,16C25.488,46.902,25.744,47,26,47s0.512-0.098,0.707-0.293c0.391-0.391,0.391-1.023,0-1.414
	L12.414,31H49c0.553,0,1-0.448,1-1S49.553,29,49,29z"/>
</svg>
