<?xml version="1.0" encoding="utf-8"?>
<!-- Generator: Adobe Illustrator 16.0.0, SVG Export Plug-In . SVG Version: 6.00 Build 0)  -->
<!DOCTYPE svg PUBLIC "-//W3C//DTD SVG 1.1//EN" "http://www.w3.org/Graphics/SVG/1.1/DTD/svg11.dtd">
<svg version="1.1" id="Capa_1" xmlns="http://www.w3.org/2000/svg" xmlns:xlink="http://www.w3.org/1999/xlink" x="0px" y="0px"
	 width="50px" height="60px" viewBox="0 0 50 60" enable-background="new 0 0 50 60" xml:space="preserve">
<path fill="#FFFFFF" d="M37.267,24.282c2.779-2.544,4.526-6.184,4.526-10.256c0-8.745-8.002-15.621-17.083-13.703
	c-5.377,1.135-9.675,5.549-10.705,10.946c-0.993,5.208,0.899,9.984,4.348,13.089c3.434,3.092,5.129,7.682,5.129,12.303v1.104
	c0,3.214-0.735,6.467-2.584,9.095c-1.223,1.739-1.798,3.961-1.362,6.34c0.613,3.339,3.356,6.07,6.698,6.664
	c5.302,0.939,9.91-3.112,9.91-8.24c0-1.527-0.412-2.952-1.131-4.179c-1.743-2.979-2.96-6.235-2.96-9.687v-1.102
	C32.053,31.997,33.828,27.429,37.267,24.282z M32.638,51.624c0,2.689-2.182,4.869-4.871,4.869s-4.87-2.18-4.87-4.869
	c0-2.69,2.181-4.871,4.87-4.871S32.638,48.934,32.638,51.624z M27.767,33.039c-1.594,0-2.886-1.292-2.886-2.886
	c0-1.596,1.292-2.888,2.886-2.888c1.596,0,2.888,1.292,2.888,2.888C30.654,31.747,29.362,33.039,27.767,33.039z M29.611,40.04
	c0,1.019-0.826,1.844-1.845,1.844c-1.018,0-1.844-0.825-1.844-1.844s0.826-1.844,1.844-1.844
	C28.785,38.196,29.611,39.021,29.611,40.04z M27.767,21.818c-4.303,0-7.792-3.489-7.792-7.792c0-4.304,3.489-7.792,7.792-7.792
	c4.304,0,7.792,3.488,7.792,7.792C35.559,18.329,32.07,21.818,27.767,21.818z"/>
<path fill="#FFFFFF" d="M45.882,22.713c-2.005,0-3.629,1.626-3.629,3.631v17.141c0,2.005,1.624,3.63,3.629,3.63
	s3.63-1.625,3.63-3.63V26.344C49.512,24.339,47.887,22.713,45.882,22.713z M46.084,44.864c-1.374,0-2.488-1.114-2.488-2.488
	s1.114-2.487,2.488-2.487c1.373,0,2.487,1.113,2.487,2.487S47.457,44.864,46.084,44.864z M46.084,37.402
	c-1.374,0-2.488-1.114-2.488-2.488s1.114-2.487,2.488-2.487c1.373,0,2.487,1.113,2.487,2.487S47.457,37.402,46.084,37.402z
	 M46.084,29.94c-1.374,0-2.488-1.114-2.488-2.488c0-1.373,1.114-2.487,2.488-2.487c1.373,0,2.487,1.114,2.487,2.487
	C48.571,28.826,47.457,29.94,46.084,29.94z"/>
<path fill="#FFFFFF" d="M13.112,24.519L8.103,8.125c-0.586-1.917-2.615-2.996-4.533-2.41C1.652,6.3,0.574,8.329,1.159,10.247
	l5.01,16.393c0.585,1.918,2.615,2.997,4.532,2.411C12.619,28.464,13.697,26.436,13.112,24.519z M2.768,10.915
	c-0.4-1.314,0.34-2.705,1.653-3.106c1.314-0.402,2.704,0.338,3.106,1.652c0.401,1.314-0.338,2.705-1.652,3.106
	C4.561,12.968,3.17,12.229,2.768,10.915z M4.949,18.051c-0.401-1.314,0.338-2.705,1.652-3.106c1.314-0.402,2.704,0.338,3.106,1.652
	c0.401,1.314-0.338,2.705-1.652,3.106S5.351,19.364,4.949,18.051z M10.236,26.84c-1.314,0.4-2.705-0.34-3.106-1.653
	c-0.402-1.314,0.338-2.704,1.652-3.106c1.313-0.401,2.705,0.338,3.105,1.652C12.29,25.046,11.55,26.438,10.236,26.84z"/>
</svg>
